<svg width="1800" height="1799" xmlns="http://www.w3.org/2000/svg" xmlns:xlink="http://www.w3.org/1999/xlink" xml:space="preserve" overflow="hidden"><g transform="translate(-1300 -301)"><path d="M1300 1200C1300 703.497 1702.5 301 2199 301L2200 301C2696.51 301 3099 703.497 3099 1200L3099 1200C3099 1696.51 2696.5 2099 2200 2099L2199 2099C1702.5 2099 1300 1696.5 1300 1200Z" fill="#FFFFFF" fill-rule="evenodd"/><path d="M2487.28 685C2578.52 685 2657.23 700.399 2723.4 731.196 2789.58 761.993 2840.71 805.623 2876.81 862.085 2912.9 918.547 2931.45 984.762 2932.46 1060.73L2641.43 1060.73C2638.93 1022.74 2624.89 993.102 2599.32 971.801 2573.76 950.499 2536.66 939.848 2488.03 939.848 2457.45 939.848 2431.88 943.698 2411.32 951.397 2390.77 959.097 2375.35 969.748 2365.08 983.35 2354.8 996.952 2349.66 1012.48 2349.66 1029.93 2349.66 1048.41 2354.93 1064.32 2365.45 1077.67 2375.98 1091.01 2392.78 1102.56 2415.84 1112.31 2438.9 1122.07 2468.23 1130.79 2503.82 1138.49L2595.56 1157.74C2657.73 1171.09 2711.25 1188.41 2756.11 1209.71 2800.98 1231.01 2837.71 1256.16 2866.28 1285.16 2894.86 1314.17 2915.79 1347.02 2929.07 1383.72 2942.36 1420.42 2949 1460.84 2949 1504.98 2949 1581.46 2930.7 1646.39 2894.1 1699.77 2857.51 1753.16 2804.99 1793.71 2736.56 1821.42 2668.13 1849.14 2585.79 1863 2489.53 1863 2391.27 1863 2305.92 1848.12 2233.48 1818.34 2161.04 1788.57 2105.14 1743.15 2065.78 1682.07 2026.43 1620.98 2006.5 1543.48 2006 1449.55L2296.27 1449.55C2298.27 1483.42 2307.05 1512.29 2322.59 1536.16 2338.13 1560.03 2359.81 1578 2387.64 1590.06 2415.46 1602.12 2448.67 1608.15 2487.28 1608.15 2519.86 1608.15 2547.44 1604.05 2570 1595.83 2592.55 1587.62 2609.85 1576.2 2621.88 1561.57 2633.92 1546.94 2639.93 1529.88 2639.93 1510.37 2639.93 1492.92 2634.29 1477.52 2623.01 1464.17 2611.73 1450.83 2593.43 1438.77 2568.12 1427.99 2542.8 1417.21 2509.33 1407.71 2467.72 1399.5L2355.68 1375.63C2254.41 1354.07 2175.32 1316.73 2118.42 1263.61 2061.52 1210.48 2033.07 1139.52 2033.07 1050.72 2033.07 977.832 2052.37 913.927 2090.98 859.005 2129.58 804.083 2182.97 761.352 2251.15 730.811 2319.33 700.27 2398.04 685 2487.28 685Z" fill="#FE026F" fill-rule="evenodd" fill-opacity="0.698039"/><path d="M1473.39 711 2120.32 711 2120.32 711 2296 711 2296 1499.07C2296 1619.76 2260.03 1712.58 2188.09 1777.55 2116.15 1842.52 2013.38 1875 1879.77 1875 1746.17 1875 1643.14 1842.52 1570.68 1777.55 1498.23 1712.58 1462 1619.5 1462 1498.3L1462 1422.8 1770.32 1422.8 1770.32 1503.69C1770.32 1544.78 1779.7 1575.72 1798.45 1596.52 1817.21 1617.32 1844.06 1627.72 1879 1627.72 1913.43 1627.72 1939.89 1617.32 1958.39 1596.52 1976.89 1575.72 1986.14 1544.52 1986.14 1502.92L1986.14 1028.81 1473.39 1028.81Z" fill="#0189D3" fill-rule="evenodd" fill-opacity="0.588235"/></g></svg>