<svg width="1486" height="1190" xmlns="http://www.w3.org/2000/svg" xmlns:xlink="http://www.w3.org/1999/xlink" xml:space="preserve" overflow="hidden"><defs><clipPath id="clip0"><rect x="1457" y="656" width="1486" height="1190"/></clipPath></defs><g clip-path="url(#clip0)" transform="translate(-1457 -656)"><path d="M2481.28 656C2572.52 656 2651.23 671.412 2717.4 702.235 2783.58 733.059 2834.71 776.725 2870.81 833.235 2906.9 889.745 2925.45 956.016 2926.46 1032.05L2635.43 1032.05C2632.93 994.031 2618.89 964.364 2593.32 943.044 2567.76 921.724 2530.66 911.065 2482.03 911.065 2451.45 911.065 2425.88 914.918 2405.32 922.623 2384.77 930.329 2369.35 940.989 2359.08 954.603 2348.8 968.217 2343.66 983.757 2343.66 1001.22 2343.66 1019.72 2348.92 1035.64 2359.45 1049 2369.98 1062.36 2386.78 1073.92 2409.84 1083.68 2432.9 1093.44 2462.23 1102.17 2497.82 1109.88L2589.56 1129.14C2651.73 1142.5 2705.24 1159.84 2750.11 1181.16 2794.98 1202.48 2831.7 1227.65 2860.28 1256.67 2888.86 1285.7 2909.79 1318.58 2923.07 1355.31 2936.36 1392.04 2943 1432.5 2943 1476.68 2943 1553.22 2924.7 1618.21 2888.1 1671.64 2851.51 1725.06 2798.99 1765.65 2730.56 1793.39 2662.13 1821.13 2579.79 1835 2483.53 1835 2385.27 1835 2299.92 1820.1 2227.48 1790.31 2155.04 1760.51 2099.14 1715.05 2059.78 1653.91 2020.43 1592.78 2000.5 1515.21 2000 1421.19L2290.27 1421.19C2292.27 1455.1 2301.05 1484 2316.59 1507.89 2332.13 1531.77 2353.81 1549.75 2381.64 1561.83 2409.46 1573.9 2442.67 1579.94 2481.28 1579.94 2513.86 1579.94 2541.44 1575.83 2564 1567.61 2586.55 1559.39 2603.85 1547.96 2615.88 1533.31 2627.91 1518.67 2633.93 1501.59 2633.93 1482.07 2633.93 1464.6 2628.29 1449.19 2617.01 1435.84 2605.73 1422.48 2587.43 1410.41 2562.12 1399.62 2536.8 1388.83 2503.33 1379.33 2461.72 1371.11L2349.68 1347.22C2248.41 1325.64 2169.32 1288.27 2112.42 1235.1 2055.52 1181.93 2027.07 1110.9 2027.07 1022.03 2027.07 949.08 2046.37 885.121 2084.98 830.153 2123.58 775.184 2176.97 732.416 2245.15 701.85 2313.33 671.283 2392.04 656 2481.28 656Z" fill="#FE026F" fill-rule="evenodd" fill-opacity="0.698039"/><path d="M1468.37 682 2114.53 682 2114.53 682 2290 682 2290 1470.07C2290 1590.76 2254.07 1683.58 2182.22 1748.55 2110.36 1813.52 2007.71 1846 1874.27 1846 1740.83 1846 1637.92 1813.52 1565.55 1748.55 1493.18 1683.58 1457 1590.5 1457 1469.3L1457 1393.8 1764.95 1393.8 1764.95 1474.69C1764.95 1515.78 1774.32 1546.72 1793.05 1567.52 1811.78 1588.32 1838.6 1598.72 1873.5 1598.72 1907.89 1598.72 1934.32 1588.32 1952.8 1567.52 1971.27 1546.72 1980.51 1515.52 1980.51 1473.92L1980.51 999.805 1468.37 999.805Z" fill="#0189D3" fill-rule="evenodd" fill-opacity="0.588235"/></g></svg>