<svg width="3327" height="578" xmlns="http://www.w3.org/2000/svg" xmlns:xlink="http://www.w3.org/1999/xlink" xml:space="preserve" overflow="hidden"><defs><clipPath id="clip0"><rect x="340" y="724" width="3327" height="578"/></clipPath></defs><g clip-path="url(#clip0)" transform="translate(-340 -724)"><path d="M1200.56 994.727C1218.79 994.727 1234.12 1001.13 1246.57 1013.94 1259.01 1026.75 1265.23 1044.38 1265.23 1066.84 1265.23 1089.3 1258.92 1107.11 1246.3 1120.27 1233.69 1133.43 1218.44 1140.01 1200.56 1140.01 1182.68 1140.01 1167.52 1133.52 1155.08 1120.53 1142.64 1107.55 1136.41 1089.83 1136.41 1067.37 1136.41 1044.91 1142.64 1027.19 1155.08 1014.2 1167.52 1001.22 1182.68 994.727 1200.56 994.727ZM853.979 994.2C871.155 994.2 885.614 1000.52 897.356 1013.15 909.099 1025.78 914.97 1043.86 914.97 1067.37 914.97 1090.88 908.924 1108.95 896.831 1121.59 884.737 1134.22 870.103 1140.54 852.927 1140.54 835.752 1140.54 821.468 1134.22 810.076 1121.59 798.684 1108.95 792.988 1090.88 792.988 1067.37 792.988 1043.51 798.771 1025.34 810.339 1012.89 821.906 1000.43 836.453 994.2 853.979 994.2ZM853.979 916.294C825.236 916.294 799.297 922.435 776.163 934.718 753.028 947 734.8 964.634 721.481 987.62 708.161 1010.61 701.5 1037.19 701.5 1067.37 701.5 1097.9 708.073 1124.57 721.218 1147.38 734.362 1170.19 752.414 1187.74 775.374 1200.02 798.333 1212.3 824.184 1218.44 852.927 1218.44 881.67 1218.44 907.697 1212.3 931.007 1200.02 954.317 1187.74 972.719 1170.1 986.214 1147.12 999.71 1124.13 1006.46 1097.55 1006.46 1067.37 1006.46 1037.19 999.797 1010.61 986.477 987.62 973.157 964.634 954.93 947 931.795 934.718 908.661 922.435 882.722 916.294 853.979 916.294ZM558.401 844.705 558.401 1096.32C558.401 1109.66 555.421 1119.83 549.462 1126.85 543.503 1133.87 535.091 1137.38 524.225 1137.38 512.307 1137.38 503.193 1133.43 496.884 1125.54 490.574 1117.64 487.419 1105.97 487.419 1090.53L398.036 1090.53C398.036 1131.24 409.778 1162.65 433.263 1184.75 456.748 1206.86 487.945 1217.92 526.853 1217.92 564.009 1217.92 593.541 1207.39 615.448 1186.33 637.356 1165.28 648.31 1135.27 648.31 1096.32L648.31 844.705ZM1047.03 824.702 1047.03 1214.23 1136.94 1214.23 1136.94 1173.17C1145.7 1186.86 1157.8 1197.83 1173.22 1206.07 1188.64 1214.32 1206.7 1218.44 1227.38 1218.44 1251.56 1218.44 1273.47 1212.21 1293.1 1199.76 1312.73 1187.3 1328.24 1169.58 1339.63 1146.59 1351.02 1123.6 1356.72 1097.02 1356.72 1066.84 1356.72 1036.66 1351.02 1010.17 1339.63 987.357 1328.24 964.547 1312.73 947 1293.1 934.718 1273.47 922.435 1251.56 916.294 1227.38 916.294 1207.05 916.294 1188.99 920.505 1173.22 928.927 1157.45 937.35 1145.35 948.404 1136.94 962.09L1136.94 824.702ZM340 724 1410 724 1410 1302 340 1302Z" fill="#0189D3" fill-rule="evenodd"/><path d="M3427.57 994.727C3445.45 994.727 3460.61 1001.22 3473.06 1014.2 3485.51 1027.19 3491.73 1044.91 3491.73 1067.37 3491.73 1089.83 3485.51 1107.55 3473.06 1120.53 3460.61 1133.52 3445.45 1140.01 3427.57 1140.01 3409.68 1140.01 3394.52 1133.43 3382.07 1120.27 3369.62 1107.11 3363.4 1089.3 3363.4 1066.84 3363.4 1044.38 3369.62 1026.75 3382.07 1013.94 3394.52 1001.13 3409.68 994.727 3427.57 994.727ZM2458.42 994.2C2475.61 994.2 2490.07 1000.52 2501.82 1013.15 2513.56 1025.78 2519.44 1043.86 2519.44 1067.37 2519.44 1090.88 2513.39 1108.95 2501.29 1121.59 2489.19 1134.22 2474.55 1140.54 2457.37 1140.54 2440.19 1140.54 2425.9 1134.22 2414.51 1121.59 2403.11 1108.95 2397.41 1090.88 2397.41 1067.37 2397.41 1043.51 2403.2 1025.34 2414.77 1012.89 2426.34 1000.43 2440.89 994.2 2458.42 994.2ZM3096.01 988.41C3111.79 988.41 3124.94 992.972 3135.46 1002.1 3145.98 1011.22 3151.23 1023.5 3151.23 1038.94L3038.68 1038.94C3041.13 1022.8 3047.53 1010.34 3057.88 1001.57 3068.22 992.796 3080.93 988.41 3096.01 988.41ZM2282.31 917.347C2263.03 917.347 2245.49 921.997 2229.72 931.296 2213.94 940.596 2200.79 953.317 2190.27 969.46L2190.27 920.505 2100.33 920.505 2100.33 1214.23 2190.27 1214.23 2190.27 1077.9C2190.27 1053.68 2195.88 1036.75 2207.1 1027.1 2218.32 1017.45 2235.15 1012.62 2257.59 1012.62L2282.31 1012.62ZM3097.06 916.294C3067.96 916.294 3042.19 922.435 3019.74 934.718 2997.3 947 2979.86 964.547 2967.41 987.357 2954.96 1010.17 2948.74 1036.84 2948.74 1067.37 2948.74 1097.9 2955.05 1124.57 2967.67 1147.38 2980.3 1170.19 2997.83 1187.74 3020.27 1200.02 3042.71 1212.3 3068.31 1218.44 3097.06 1218.44 3120.9 1218.44 3142.47 1214.06 3161.75 1205.28 3181.04 1196.51 3197.08 1184.4 3209.88 1168.96 3222.68 1153.52 3231.53 1136.15 3236.44 1116.85L3140.72 1116.85C3131.95 1135.8 3116.35 1145.28 3093.9 1145.28 3078.83 1145.28 3066.12 1140.45 3055.77 1130.8 3045.43 1121.15 3039.56 1107.2 3038.15 1088.95L3241.7 1088.95C3242.75 1079.83 3243.28 1071.05 3243.28 1062.63 3243.28 1033.15 3237.05 1007.36 3224.61 985.252 3212.16 963.143 3194.89 946.123 3172.8 934.191 3150.71 922.26 3125.46 916.294 3097.06 916.294ZM2458.42 916.294C2429.67 916.294 2403.72 922.435 2380.58 934.718 2357.44 947 2339.21 964.634 2325.88 987.62 2312.56 1010.61 2305.89 1037.19 2305.89 1067.37 2305.89 1097.9 2312.47 1124.57 2325.62 1147.38 2338.77 1170.19 2356.82 1187.74 2379.79 1200.02 2402.76 1212.3 2428.62 1218.44 2457.37 1218.44 2486.12 1218.44 2512.16 1212.3 2535.48 1200.02 2558.8 1187.74 2577.2 1170.1 2590.7 1147.12 2604.2 1124.13 2610.95 1097.55 2610.95 1067.37 2610.95 1037.19 2604.29 1010.61 2590.97 987.62 2577.64 964.634 2559.41 947 2536.27 934.718 2513.12 922.435 2487.18 916.294 2458.42 916.294ZM1910.01 916.294C1881.26 916.294 1855.75 922.435 1833.48 934.718 1811.22 947 1793.86 964.547 1781.41 987.357 1768.97 1010.17 1762.74 1036.84 1762.74 1067.37 1762.74 1097.9 1768.97 1124.57 1781.41 1147.38 1793.86 1170.19 1811.22 1187.74 1833.48 1200.02 1855.75 1212.3 1881.26 1218.44 1910.01 1218.44 1946.48 1218.44 1977.16 1208.62 2002.06 1188.97 2026.95 1169.31 2043.26 1142.29 2050.97 1107.9L1955.24 1107.9C1947.18 1130.36 1931.58 1141.59 1908.43 1141.59 1891.95 1141.59 1878.8 1135.19 1868.99 1122.38 1859.17 1109.57 1854.26 1091.23 1854.26 1067.37 1854.26 1043.51 1859.17 1025.17 1868.99 1012.36 1878.8 999.552 1891.95 993.147 1908.43 993.147 1931.58 993.147 1947.18 1004.38 1955.24 1026.84L2050.97 1026.84C2043.26 991.743 2027.04 964.547 2002.32 945.246 1977.6 925.945 1946.83 916.294 1910.01 916.294ZM1582.66 839.44C1542.69 839.44 1510.26 849.178 1485.36 868.655 1460.46 888.131 1448.02 915.065 1448.02 949.456 1448.02 972.618 1453.45 991.392 1464.32 1005.78 1475.19 1020.17 1488.16 1031.05 1503.24 1038.42 1518.32 1045.79 1537.78 1053.16 1561.62 1060.53 1578.1 1065.44 1590.82 1069.82 1599.76 1073.69 1608.7 1077.55 1616.24 1082.46 1622.37 1088.42 1628.51 1094.39 1631.58 1101.93 1631.58 1111.06 1631.58 1121.94 1627.72 1130.45 1620.01 1136.59 1612.29 1142.73 1601.77 1145.8 1588.45 1145.8 1575.47 1145.8 1564.96 1142.2 1556.89 1135.01 1548.83 1127.82 1544.09 1117.38 1542.69 1103.69L1446.96 1103.69C1447.67 1127.9 1454.42 1148.61 1467.21 1165.8 1480.01 1183 1497.11 1195.98 1518.5 1204.76 1539.88 1213.53 1564.08 1217.92 1591.08 1217.92 1618.78 1217.92 1642.8 1212.83 1663.14 1202.65 1683.47 1192.47 1698.99 1178.79 1709.68 1161.59 1720.38 1144.4 1725.73 1125.27 1725.73 1104.22 1725.73 1082.11 1720.29 1064.03 1709.42 1050 1698.55 1035.96 1685.66 1025.26 1670.76 1017.89 1655.86 1010.52 1636.49 1002.8 1612.64 994.726 1588.8 987.006 1571.27 979.812 1560.05 973.144 1548.83 966.476 1543.22 957.177 1543.22 945.245 1543.22 934.366 1546.55 926.032 1553.21 920.242 1559.87 914.451 1568.64 911.556 1579.51 911.556 1592.13 911.556 1602.47 914.978 1610.54 921.821 1618.6 928.664 1622.99 938.051 1623.69 949.983L1720.99 949.983C1719.24 915.241 1705.91 888.131 1681.02 868.655 1656.12 849.178 1623.34 839.44 1582.66 839.44ZM3491.73 824.702 3491.73 961.037C3482.62 947.351 3470.08 936.472 3454.13 928.401 3438.17 920.33 3420.55 916.294 3401.27 916.294 3377.07 916.294 3355.16 922.435 3335.52 934.718 3315.89 947 3300.37 964.547 3288.97 987.357 3277.58 1010.17 3271.88 1036.66 3271.88 1066.84 3271.88 1097.02 3277.58 1123.6 3288.97 1146.59 3300.37 1169.58 3315.89 1187.3 3335.52 1199.76 3355.16 1212.21 3377.07 1218.44 3401.27 1218.44 3421.96 1218.44 3440.1 1214.23 3455.7 1205.81 3471.31 1197.39 3483.32 1186.16 3491.73 1172.12L3491.73 1214.23 3581.67 1214.23 3581.67 824.702ZM2811.93 824.701 2811.93 1214.23 2901.87 1214.23 2901.87 824.701ZM2657.23 824.701 2657.23 1214.23 2747.17 1214.23 2747.17 824.701ZM1413 724 3667 724 3667 1302 1413 1302Z" fill="#FE026F" fill-rule="evenodd"/></g></svg>